<?xml version="1.0" encoding="utf-8" ?><svg xmlns="http://www.w3.org/2000/svg" xmlns:xlink="http://www.w3.org/1999/xlink" width="1024" height="1024" viewBox="0 0 1024 1024"><path fill="#4CFADA" d="M651.577 206.706C651.754 206.682 651.931 206.659 652.109 206.635C691.508 203.654 732.165 218.813 762.004 243.674C794.015 270.79 814.004 309.464 817.61 351.261C821.04 390.958 807.226 436.741 780.98 466.618C763.667 486.327 741.635 506.775 722.731 525.572L602.366 644.496L514.425 731.798L486.406 759.825C474.514 771.713 465.97 780.836 452.047 790.503C428.521 806.602 401.135 816.151 372.7 818.169C371.975 818.259 371.247 818.334 370.519 818.393C331.532 821.633 291.178 807.598 261.392 782.494C230.072 755.978 210.5 718.158 206.941 677.276C202.958 633.448 216.756 589.858 245.232 556.305C255.295 544.423 266.798 533.239 277.828 522.221L313.934 486.002L423.253 376.728L504.668 294.91C552.165 246.867 579.327 212.731 651.577 206.706ZM407.071 425.161C423.114 435.282 440.245 450.02 454.98 461.934C513.216 509.022 561.637 562.554 608.93 620.293L715.056 514.917L747.774 482.764C760.702 470.017 773.394 458.141 783.062 442.61C797.51 418.993 805.264 391.892 805.495 364.208C805.514 325.636 790.112 288.658 762.718 261.504C735.722 234.394 698.974 219.255 660.715 219.482C643.598 219.552 626.626 222.619 610.567 228.542C591.283 235.612 576.583 243.649 561.451 257.759C548.825 269.531 536.914 281.831 524.785 294.091L470.659 348.322L329.833 491.274L288.174 532.395C272.194 548.062 255.192 563.821 243.207 582.847C228.025 606.844 219.987 634.667 220.034 663.064C220.232 702.286 235.714 737.429 263.571 764.844C264.96 766.227 266.394 767.563 267.871 768.85C272.216 774.091 301.794 794.053 308.093 793.907C305.53 791.833 298.793 788.892 295.435 786.807C284.876 780.106 275.193 772.114 266.612 763.016C240.618 734.747 227.277 699.921 228.787 661.304C229.742 636.911 236.621 612.026 248.963 590.889C260.287 571.495 276.754 555.35 292.609 539.632C303.249 529.208 313.823 518.718 324.332 508.162L388.552 444.116C394.747 437.942 400.889 431.185 407.071 425.161ZM264.085 662.523C267.15 633.398 278.894 605.866 297.794 583.496C316.29 561.625 340.369 541.512 359.314 519.768C362.477 516.139 366.118 512.724 369.354 509.046C373.363 506.329 408.889 466.438 411.034 462.27C396.112 477.2 379.733 491.463 364.851 506.486C342.665 527.832 319.025 551.625 296.246 571.863L292.59 575.182C258.628 607.271 247.236 637.297 252.032 683.929C254.964 707.491 264.389 725.152 280.306 742.233C268.538 717.347 264.242 704.03 263.374 676.181C263.516 673.069 263.621 669.955 263.689 666.84C263.836 666.363 264.032 663.217 264.085 662.523Z"/><defs><linearGradient id="gradient_0" gradientUnits="userSpaceOnUse" x1="389.22031" y1="491.54053" x2="383.83615" y2="484.91357"><stop offset="0" stop-color="#000202" stop-opacity="0"/><stop offset="1" stop-color="black" stop-opacity="0.050980393"/></linearGradient></defs><path fill="url(#gradient_0)" d="M411.034 462.27C408.889 466.438 373.363 506.329 369.354 509.046C367.868 509.687 368.087 509.768 366.55 509.846C365.786 508.642 365.426 507.769 364.851 506.486C379.733 491.463 396.112 477.2 411.034 462.27Z"/><path d="M266.612 763.016C275.193 772.114 284.876 780.106 295.435 786.807C298.793 788.892 305.53 791.833 308.093 793.907C301.794 794.053 272.216 774.091 267.871 768.85C266.464 765.526 266.229 766.589 266.612 763.016Z"/></svg>